<svg data-v-0dd9719b="" version="1.0" xmlns="http://www.w3.org/2000/svg" xmlns:xlink="http://www.w3.org/1999/xlink" width="100%" height="100%" viewBox="0 0 340.000000 250.000000" preserveAspectRatio="xMidYMid meet" color-interpolation-filters="sRGB" style="margin: auto;"> <rect data-v-0dd9719b="" x="0" y="0" width="100%" height="100%" fill="#fff" fill-opacity="1" class="background"></rect> <rect data-v-0dd9719b="" x="0" y="0" width="100%" height="100%" fill="url(#watermark)" fill-opacity="1" class="watermarklayer"></rect> <g data-v-0dd9719b="" fill="#e60012" class="icon-text-wrapper icon-svg-group iconsvg" transform="translate(47.94139099121094,95.00060081481934)"><g class="iconsvg-imagesvg" transform="translate(0,0)"><g><rect fill="#e60012" fill-opacity="0" stroke-width="2" x="0" y="0" width="60" height="59.99880002399953" class="image-rect"></rect> <svg x="0" y="0" width="60" height="59.99880002399953" filtersec="colorsb5126273202" class="image-svg-svg primary" style="overflow: visible;"><svg version="1.1" id="cube" xmlns="http://www.w3.org/2000/svg" xmlns:xlink="http://www.w3.org/1999/xlink" x="0px" y="0px" viewBox="6.940000057220459 2.7200000286102295 497.1099853515625 497.1000061035156" enable-background="new 0 0 511 502.75" xml:space="preserve">
<g>
	<path fill="#007DB4" d="M255.49,103.28c23.85-12.96,51.19-20.32,80.24-20.32c27.75,0,53.92,6.76,77,18.66
		C386.29,43.3,327.6,2.72,259.4,2.72c-66.32,0-123.66,38.37-151.09,94.11c20.52-8.9,43.14-13.87,66.93-13.87
		C204.31,82.95,231.64,90.32,255.49,103.28z"></path>
	<path fill="#E60012" d="M326.25,177.01c-15.41-31.29-40.19-57.13-70.76-73.74c-32.12,17.45-57.86,45.08-73.05,78.52
		c23.07-11.88,49.22-18.6,76.96-18.6C283.16,163.2,305.76,168.14,326.25,177.01z"></path>
	<path fill="#007DB4" d="M255.49,399.26c-23.85,12.96-51.19,20.32-80.24,20.32c-23.79,0-46.42-4.96-66.93-13.87
		c27.43,55.74,84.77,94.11,151.09,94.11c68.2,0,126.88-40.58,153.32-98.9c-23.08,11.89-49.24,18.66-77,18.66
		C306.68,419.58,279.34,412.22,255.49,399.26z"></path>
	<path fill="#E60012" d="M182.45,320.74c15.18,33.44,40.93,61.08,73.05,78.52c30.57-16.61,55.34-42.45,70.76-73.74
		c-20.49,8.88-43.09,13.82-66.85,13.82C231.67,339.34,205.51,332.62,182.45,320.74z"></path>
	<path fill="#E60037" d="M111.41,251.27c-12.96-23.85-20.32-51.19-20.32-80.24c0-26.64,6.21-51.82,17.23-74.2
		C48.67,122.71,6.94,182.1,6.94,251.27s41.73,128.56,101.38,154.44c-11.02-22.39-17.23-47.56-17.23-74.2
		C91.09,302.46,98.46,275.12,111.41,251.27z"></path>
	<path fill="#007DB4" d="M182.45,181.8c-30.08,15.5-54.9,39.77-71.03,69.47c16.13,29.69,40.95,53.97,71.03,69.47
		c-9.62-21.18-15.03-44.69-15.03-69.47C167.42,226.49,172.83,202.99,182.45,181.8z"></path>
	<path fill="#007DB4" d="M326.25,177.01c11.04,22.4,17.31,47.59,17.31,74.25s-6.28,51.84-17.31,74.25
		c34.63-15.01,63.24-41.3,81.15-74.25C389.49,218.31,360.88,192.02,326.25,177.01z"></path>
	<path fill="#E60037" d="M504.05,251.27c0-65.2-37.1-121.7-91.32-149.65c9.6,21.17,14.99,44.65,14.99,69.41
		c0,29.06-7.37,56.39-20.32,80.24c12.96,23.85,20.32,51.19,20.32,80.24c0,24.76-5.39,48.24-14.99,69.41
		C466.95,372.97,504.05,316.47,504.05,251.27z"></path>
</g>
</svg></svg> <!----></g></g> <g transform="translate(67,0.8081493377685547)"><g data-gra="path-name" fill-rule="" class="tp-name iconsvg-namesvg" transform="translate(0,0)"><g transform="scale(1)"><g><path d="M13.46-34.88L13.46-34.88Q15.71-33.03 13.77-30.55L13.77-30.55Q11.88-28.08 9.76-30.11L9.76-30.11Q9.45-30.33 6.57-31.86L6.57-31.86Q4.05-33.3 5.85-35.5L5.85-35.5Q7.65-37.75 10.26-36.41L10.26-36.41Q13.05-35.1 13.46-34.88ZM10.21-22.27L10.21-22.27Q12.51-20.43 10.62-17.95L10.62-17.95Q8.73-15.52 6.84-17.77L6.84-17.77Q6.61-17.77 3.92-19.21L3.92-19.21Q1.4-20.65 3.15-22.86L3.15-22.86Q4.95-25.06 7.56-23.76L7.56-23.76Q9.9-22.77 10.21-22.27ZM9.36 0.81L9.36 0.81Q8.23 3.51 5.4 1.75L5.4 1.75Q2.56 0.04 3.82-2.56L3.82-2.56Q6.08-6.79 8.82-14.4L8.82-14.4 11.47-12.51Q13.86-10.84 12.91-8.1L12.91-8.1Q11.34-3.51 9.36 0.81ZM31.45-8.14L31.45-8.14 34.38-8.14 34.7-11.7 29.38-11.7 30.42-10.89Q32.49-8.87 31.45-8.14ZM25.88-11.7L22.99-11.7 22.63-9Q22.54-8.14 23.4-8.14L23.4-8.14 27.27-8.14 26.59-8.78Q24.39-10.75 25.88-11.7L25.88-11.7ZM26.95-20.7L24.12-20.7 23.76-17.59 27.68-17.77Q25.61-19.84 26.95-20.7L26.95-20.7ZM35.05-17.59L35.19-20.7 30.24-20.7 30.69-20.29Q32.76-18.18 31.9-17.59L31.9-17.59 35.05-17.59ZM44.05-17.59L44.05-14.63Q44.05-11.7 40.68-11.7L40.68-11.7 40.37-8.14 42.98-8.14 42.98-5.54Q42.98-2.61 39.69-2.61L39.69-2.61Q39.2 0.22 38.34 1.35L38.34 1.35Q36.99 3.28 34.42 3.73L34.42 3.73Q32.67 4.09 31.68 3.96L31.68 3.96Q28.75 3.92 27.95 1.26 27.13-1.4 30.06-1.3L30.06-1.3 31.41-1.21Q32.45-1.21 33.03-1.98L33.03-1.98Q33.12-2.07 33.39-2.61L33.39-2.61 18.36-2.61Q15.43-2.61 16.06-5.54L16.06-5.54Q16.06-5.67 16.96-11.7L16.96-11.7 15.97-11.7Q13.05-11.7 13.05-14.63L13.05-14.63 13.05-17.59 17.73-17.59 18.31-22.68Q17.64-21.78 14.85-23.58 12.06-25.38 13.86-27.68L13.86-27.68Q16.61-30.38 19.04-38.52L19.04-38.52 23.8-37.26Q25.38-36.9 24.84-35.37L24.84-35.37Q24.48-34.42 24.43-34.24L24.43-34.24 42.75-34.24 42.75-31.36Q42.75-28.44 39.82-28.44L39.82-28.44 21.78-28.44 20.97-26.95Q20.56-26.23 21.42-26.23L21.42-26.23 41.35-26.23 41.22-22.5 40.99-17.59 44.05-17.59ZM62.95-15.12L66.73-15.12Q69.66-15.12 70.02-18L70.02-18Q70.2-18.04 71.06-20.52L71.06-20.52 64.58-20.52 65.43-18.99Q66.64-16.34 63.9-15.43L63.9-15.43 62.95-15.12ZM87.57-35.19L87.57-32.04Q87.57-29.11 84.64-29.11L84.64-29.11 71.19-29.11 71.19-26.5 86.31-26.5 86.31-2.11Q86.31 0.14 85.68 1.3L85.68 1.3Q85.09 2.48 83.25 3.28L83.25 3.28Q81.45 4.09 78.16 4.23L78.16 4.23Q75.24 4.09 74.2 1.4L74.2 1.4 73.13-1.35Q74.38-1.26 76.23-1.21L76.23-1.21Q78.12-1.21 78.62-1.21L78.62-1.21Q79.11-1.26 79.34-1.44L79.34-1.44Q79.56-1.67 79.56-2.16L79.56-2.16 79.56-20.52 72.13-20.52 73.8-20.07Q76.63-19.3 75.11-16.79L75.11-16.79Q75.06-16.56 74.07-15.12L74.07-15.12 77.13-15.12 77.13-13.05Q77.13-10.13 74.2-10.13L74.2-10.13 70.42-10.13 70.42-8.05 78.21-8.05 78.21-5.8Q78.21-2.88 75.28-2.88L75.28-2.88 70.42-2.88 70.42-0.18Q70.42 2.75 67.32 2.75L67.32 2.75Q64.26 2.75 64.26-0.18L64.26-0.18 64.26-2.88 59.63-2.88Q56.7-2.88 56.7-5.8L56.7-5.8 56.7-8.05 64.26-8.05 64.26-10.13 60.57-10.13Q57.64-10.13 57.64-13.05L57.64-13.05 57.64-15.12 61.02-15.12 60.34-16.83Q59.04-19.48 61.83-20.25L61.83-20.25 62.69-20.52 55.26-20.52 55.26 1.21Q55.26 4.14 51.98 4.14 48.69 4.14 48.69 1.21L48.69 1.21 48.69-26.5 64.03-26.5 64.03-29.11 50.35-29.11Q47.43-29.11 47.43-32.04L47.43-32.04 47.43-35.19 64.03-35.19 64.03-38.02 71.19-38.02 71.19-35.19 87.57-35.19ZM96.89-23.18L98.55-21.51Q100.62-19.48 98.46-17.55L98.46-17.55Q96.34-15.66 94.59-18.04L94.59-18.04Q94.81-17.91 92.88-19.75L92.88-19.75Q90.81-21.82 92.79-23.49L92.79-23.49Q94.81-25.2 96.89-23.18L96.89-23.18ZM126.13-8.78L126.13-6.39Q126.13-3.46 123.21-3.46L123.21-3.46 113.63-3.46Q110.7-3.46 110.7-6.39L110.7-6.39 110.7-8.78 126.13-8.78ZM119.16-29.61L119.16-27.27 122.17-29.34Q124.25-27.27 125.28-25.83L125.28-25.83 125.5-29.61 119.16-29.61ZM119.16-26.28L119.16-16.61Q119.16-15.75 120.02-15.75L120.02-15.75 133.43-15.75Q133.43-7.96 132.84-3.46 132.25 1.03 131.4 2.16L131.4 2.16Q130.14 3.73 127.8 4L127.8 4Q126.27 4.23 125.28 4.14L125.28 4.14Q122.35 4.14 121.59 1.71L121.59 1.71Q120.87-0.67 123.8-0.54L123.8-0.54 124.38-0.49Q125.73-0.49 126.27-1.08L126.27-1.08Q127.08-2.07 127.39-11.21L127.39-11.21 116.41-11.21Q113.49-11.21 113.49-14.13L113.49-14.13 113.49-34.16 117.18-34.16Q118.08-36.18 118.71-38.43L118.71-38.43 122.09-38.07Q125.01-37.8 123.53-35.23L123.53-35.23 122.89-34.16 131.35-34.16Q131.35-28.04 130.81-23.89 130.28-19.75 129.51-18.81L129.51-18.81Q128.47-17.46 126.67-17.14L126.67-17.14Q124.92-16.88 124.83-17.01L124.83-17.01Q121.91-16.96 121.23-19.26L121.23-19.26Q120.6-21.6 122.94-21.46L122.94-21.46Q124.11-21.46 124.47-21.91L124.47-21.91 125.14-24.61 124.38-24.07Q122-22.41 120.42-24.88L120.42-24.88Q119.56-26.55 119.16-26.28L119.16-26.28ZM111.11-8.78L111.11-8.78Q106.78-6.52 105.03-5.71L105.03-5.71Q102.38-4.46 101.34-7.15L101.34-7.15 100.8-8.55Q99.05-2.11 97.92 0.9L97.92 0.9Q96.97 3.65 94.28 2.21 91.58 0.77 92.61-1.93L92.61-1.93Q94.28-5.71 96.39-13.28L96.39-13.28 101.03-10.44 103.91-11.52 103.72-27.77Q100.8-27.77 100.8-30.69L100.8-30.69 100.8-31.27 99-29.92Q96.7-28.17 94.32-31.32 91.94-34.47 93.64-33.34L93.64-33.34Q94.28-36.18 95.27-36.9L95.27-36.9Q96.3-37.62 98.23-35.46L98.23-35.46Q99.22-34.56 100.8-32.49L100.8-32.49 100.8-33.48 112.19-33.48 112.19-30.33Q112.19-27.77 109.62-27.77L109.62-27.77 109.62-13.86 111.73-14.71 112.5-11.79Q113-9.76 111.11-8.78ZM146.75-34.42L146.75-34.42Q148.46-32.04 145.89-30.29L145.89-30.29Q143.37-28.53 141.88-31.05L141.88-31.05Q141.75-31.32 139.72-33.62L139.72-33.62Q137.84-35.87 140.26-37.3L140.26-37.3Q142.74-38.79 144.72-36.67L144.72-36.67Q146.38-35.05 146.75-34.42ZM158.22-26.73L158.22-26.73 169.25-26.73Q165.78-29.29 162.63-31.41L162.63-31.41Q160.6-28.89 158.22-26.73ZM144.72-17.14L146.75-17.28Q149.4-16.2 149-13.37L149-13.37Q148.81-11.12 147.42-7.06L147.42-7.06Q149.18-4 152.37-3.06L152.37-3.06Q155.61-2.11 161.41-2.07L161.41-2.07Q171-2.07 179.55-2.92L179.55-2.92 178.43 0.32Q177.48 3.06 174.56 3.19L174.56 3.19Q170.41 3.51 162.68 3.51 154.94 3.51 151.2 2.43L151.2 2.43Q147.51 1.4 145.13-1.67L145.13-1.67Q143.01 2.16 142.25 2.65L142.25 2.65Q139.95 4.46 137.97 2.11L137.97 2.11 137.93 2.07Q135.72 0.14 137.97-1.75L137.97-1.75Q141.07-3.51 143.1-12.15L143.1-12.15 140.63-11.97Q137.75-11.43 136.66-14.17L136.66-14.17Q135.63-16.92 138.15-18.4L138.15-18.4 141.57-22.77 139.72-22.77Q136.8-22.77 136.8-25.7L136.8-25.7 136.8-27.9 145.57-27.9 146.29-28.17 149-27Q152.69-29.38 156.01-32.58L156.01-32.58Q159.34-35.82 161.32-39.2L161.32-39.2 165.69-37.3Q166.63-36.9 166.05-36L166.05-36Q175.91-29.7 176.67-28.8L176.67-28.8Q178.92-26.91 176.85-24.43L176.85-24.43Q174.82-22 172.62-23.98L172.62-23.98 171.54-24.93 171.54-24.43Q171.54-21.51 168.62-21.51L168.62-21.51 166.37-21.51 166.37-19.48 176.67-19.48 176.67-17.19Q176.67-14.26 173.75-14.26L173.75-14.26 166.37-14.26 166.37-6.43Q166.37-3.51 163.22-3.51L163.22-3.51Q160.11-3.51 160.11-6.43L160.11-6.43 160.11-14.26 152.82-14.26Q149.9-14.26 149.9-17.19L149.9-17.19 149.9-19.48 160.11-19.48 160.11-21.51 157.59-21.51Q155.12-21.51 155.12-23.98L155.12-23.98 154.08-23.18Q151.69-21.42 149.85-23.71L149.85-23.71 149.13-24.52Q145.53-19.26 144.36-17.82L144.36-17.82Q143.87-17.14 144.72-17.14L144.72-17.14ZM169.34-9.45L169.34-9.45Q167.58-11.79 170.14-12.96L170.14-12.96Q172.75-14.13 174.6-11.83L174.6-11.83Q176.44-9.49 176.35-9.58L176.35-9.58Q177.66-6.97 174.91-5.67 172.17-4.37 170.91-7.06L170.91-7.06Q170.87-7.38 169.34-9.45ZM151.29-10.35L151.29-10.35Q153.72-13.59 156.51-12.73L156.51-12.73Q159.25-11.88 157.81-9.45L157.81-9.45Q157-7.69 155.7-6.17L155.7-6.17Q153.76-4.09 151.34-5.63L151.34-5.63Q148.86-7.15 151.29-10.35Z" transform="translate(-2.4327869415283203, 39.20000076293945)"></path></g> <!----> <!----> <!----> <!----> <!----> <!----> <!----></g></g> <g data-gra="path-slogan" fill-rule="" class="tp-slogan iconsvg-slogansvg" fill="#e60012" transform="translate(5,49.43000030517578)"><rect x="0" height="1" y="3.9750003814697266" width="31.313610076904297"></rect> <rect height="1" y="3.9750003814697266" width="31.313610076904297" x="135.80360794067383"></rect> <g transform="translate(34.3136100769043,0)"><g transform="scale(1)"><path d="M2.06-5.06L6.56-5.06L6.56-8.58L7.73-8.58L7.73 0L6.56 0L6.56-3.98L2.06-3.98L2.06 0L0.89 0L0.89-8.58L2.06-8.58L2.06-5.06ZM15.19 0L14.34-2.48L10.88-2.48L9.98 0L8.81 0L12.05-8.58L13.36-8.58L16.45 0L15.19 0ZM12.61-7.31L11.25-3.52L13.92-3.52L12.66-7.31L12.61-7.31ZM17.67-8.58L18.84-8.58L18.84 0L17.67 0L17.67-8.58ZM22.22-8.58L26.53-1.64L26.53-8.58L27.66-8.58L27.66 0L26.34 0L21.98-6.94L21.94-6.94L21.94 0L20.81 0L20.81-8.58L22.22-8.58ZM35.11 0L34.27-2.48L30.80-2.48L29.91 0L28.73 0L31.97-8.58L33.28-8.58L36.38 0L35.11 0ZM32.53-7.31L31.17-3.52L33.84-3.52L32.58-7.31L32.53-7.31ZM38.81-8.58L43.13-1.64L43.13-8.58L44.25-8.58L44.25 0L42.94 0L38.58-6.94L38.53-6.94L38.53 0L37.41 0L37.41-8.58L38.81-8.58ZM50.53-5.06L55.03-5.06L55.03-8.58L56.20-8.58L56.20 0L55.03 0L55.03-3.98L50.53-3.98L50.53 0L49.36 0L49.36-8.58L50.53-8.58L50.53-5.06ZM64.78-4.27L64.78-4.27Q64.59-7.64 61.78-7.83L61.78-7.83Q58.92-7.69 58.78-4.27L58.78-4.27Q58.92-0.94 61.78-0.80L61.78-0.80Q64.59-0.98 64.78-4.27ZM65.95-4.27L65.95-4.27Q65.67 0 61.78 0.14L61.78 0.14Q57.84 0 57.56-4.27L57.56-4.27Q57.80-8.72 61.78-8.81L61.78-8.81Q65.67-8.67 65.95-4.27ZM68.72-8.58L73.03-1.64L73.03-8.58L74.16-8.58L74.16 0L72.84 0L68.48-6.94L68.44-6.94L68.44 0L67.31 0L67.31-8.58L68.72-8.58ZM82.36-3.61L79.73-3.61L79.73-4.59L83.48-4.59L83.48 0L82.73 0L82.45-1.08Q81.47 0.09 79.64 0.14L79.64 0.14Q77.91 0.14 76.97-0.75L76.97-0.75Q75.56-2.06 75.61-4.36L75.61-4.36Q75.94-8.63 79.69-8.81L79.69-8.81Q82.88-8.63 83.34-6L83.34-6L82.22-6Q81.75-7.78 79.64-7.83L79.64-7.83Q76.97-7.64 76.83-4.31L76.83-4.31Q76.83-0.75 79.69-0.75L79.69-0.75Q80.72-0.75 81.47-1.31L81.47-1.31Q82.41-2.06 82.36-3.61L82.36-3.61ZM87.47-7.59L84.56-7.59L84.56-8.58L91.50-8.58L91.50-7.59L88.59-7.59L88.59 0L87.47 0L87.47-7.59ZM98.20-3.19L98.20-8.58L99.38-8.58L99.38-3.05Q99.23 0.05 95.86 0.14L95.86 0.14Q92.72 0.05 92.58-2.86L92.58-2.86L92.58-8.58L93.75-8.58L93.75-3.19Q93.80-0.84 95.91-0.80L95.91-0.80Q98.20-0.84 98.20-3.19L98.20-3.19Z" transform="translate(-0.890625, 8.8125)"></path></g></g></g></g></g><defs v-gra="od"></defs></svg>